<svg width="12" height="12" viewBox="0 0 12 12" fill="none" xmlns="http://www.w3.org/2000/svg">
<path d="M5.25 1.5H3.75C3.40528 1.5 3.06394 1.5679 2.74546 1.69982C2.42698 1.83173 2.1376 2.02509 1.89384 2.26884C1.65009 2.5126 1.45673 2.80198 1.32482 3.12046C1.1929 3.43894 1.125 3.78028 1.125 4.125C1.125 4.46972 1.1929 4.81106 1.32482 5.12954C1.45673 5.44802 1.65009 5.7374 1.89384 5.98116C2.1376 6.22491 2.42698 6.41827 2.74546 6.55018C3.06394 6.6821 3.40528 6.75 3.75 6.75H5.25V9H1.875V10.5H5.25V12H6.75V10.5H8.25C8.94619 10.5 9.61387 10.2234 10.1062 9.73116C10.5984 9.23887 10.875 8.57119 10.875 7.875C10.875 7.17881 10.5984 6.51113 10.1062 6.01884C9.61387 5.52656 8.94619 5.25 8.25 5.25H6.75V3H10.125V1.5H6.75V0H5.25V1.5ZM6.75 6.75H8.25C8.54837 6.75 8.83452 6.86853 9.0455 7.0795C9.25647 7.29048 9.375 7.57663 9.375 7.875C9.375 8.17337 9.25647 8.45952 9.0455 8.6705C8.83452 8.88147 8.54837 9 8.25 9H6.75V6.75ZM5.25 5.25H3.75C3.60226 5.25 3.45597 5.2209 3.31948 5.16436C3.18299 5.10783 3.05897 5.02496 2.9545 4.9205C2.85004 4.81603 2.76717 4.69201 2.71064 4.55552C2.6541 4.41903 2.625 4.27274 2.625 4.125C2.625 3.97726 2.6541 3.83097 2.71064 3.69448C2.76717 3.55799 2.85004 3.43397 2.9545 3.3295C3.05897 3.22504 3.18299 3.14217 3.31948 3.08564C3.45597 3.0291 3.60226 3 3.75 3H5.25V5.25Z" fill="#041724"/>
</svg>
