<svg width="25" height="25" viewBox="0 0 25 25" fill="none" xmlns="http://www.w3.org/2000/svg">
<path d="M21.0938 3.90625H3.90625C3.49185 3.90625 3.09442 4.07087 2.8014 4.3639C2.50837 4.65692 2.34375 5.05435 2.34375 5.46875V19.5312C2.34375 19.9457 2.50837 20.3431 2.8014 20.6361C3.09442 20.9291 3.49185 21.0938 3.90625 21.0938H5.21387C5.36173 21.0938 5.50656 21.0519 5.63155 20.9729C5.75653 20.8939 5.85653 20.781 5.91992 20.6475C6.29982 19.8454 6.89962 19.1676 7.64956 18.693C8.39949 18.2184 9.26875 17.9665 10.1562 17.9665C11.0437 17.9665 11.913 18.2184 12.6629 18.693C13.4129 19.1676 14.0127 19.8454 14.3926 20.6475C14.456 20.781 14.556 20.8939 14.681 20.9729C14.8059 21.0519 14.9508 21.0938 15.0986 21.0938H21.0938C21.5082 21.0938 21.9056 20.9291 22.1986 20.6361C22.4916 20.3431 22.6562 19.9457 22.6562 19.5312V5.46875C22.6562 5.05435 22.4916 4.65692 22.1986 4.3639C21.9056 4.07087 21.5082 3.90625 21.0938 3.90625ZM10.1562 16.4062C9.53818 16.4062 8.934 16.223 8.42009 15.8796C7.90619 15.5362 7.50565 15.0482 7.26913 14.4771C7.0326 13.9061 6.97072 13.2778 7.0913 12.6716C7.21187 12.0654 7.5095 11.5086 7.94654 11.0715C8.38358 10.6345 8.9404 10.3369 9.54659 10.2163C10.1528 10.0957 10.7811 10.1576 11.3521 10.3941C11.9232 10.6307 12.4112 11.0312 12.7546 11.5451C13.098 12.059 13.2812 12.6632 13.2812 13.2812C13.2812 14.1101 12.952 14.9049 12.366 15.491C11.7799 16.077 10.9851 16.4062 10.1562 16.4062ZM21.0938 19.5312H15.5693C15.2286 18.9441 14.7946 18.4163 14.2842 17.9688H18.75C18.9572 17.9688 19.1559 17.8864 19.3024 17.7399C19.4489 17.5934 19.5312 17.3947 19.5312 17.1875V7.8125C19.5312 7.6053 19.4489 7.40659 19.3024 7.26007C19.1559 7.11356 18.9572 7.03125 18.75 7.03125H6.25C6.0428 7.03125 5.84409 7.11356 5.69757 7.26007C5.55106 7.40659 5.46875 7.6053 5.46875 7.8125V17.1875C5.46866 17.3608 5.52618 17.5291 5.63225 17.6662C5.73832 17.8032 5.88692 17.901 6.05469 17.9443C5.53241 18.3968 5.08917 18.9331 4.74316 19.5312H3.90625V5.46875H21.0938V19.5312Z" fill="#041724"/>
</svg>
