<svg width="37" height="37" viewBox="0 0 37 37" fill="none" xmlns="http://www.w3.org/2000/svg">
<path d="M23.8958 21.5833H22.6779L22.2463 21.1671C23.8094 19.3542 24.6685 17.0396 24.6667 14.6458C24.6667 12.6639 24.079 10.7265 22.9779 9.07856C21.8768 7.43064 20.3117 6.14625 18.4806 5.3878C16.6496 4.62934 14.6347 4.4309 12.6909 4.81755C10.747 5.20421 8.96148 6.1586 7.56004 7.56004C6.1586 8.96148 5.20421 10.747 4.81755 12.6909C4.4309 14.6347 4.62934 16.6496 5.3878 18.4806C6.14625 20.3117 7.43064 21.8768 9.07856 22.9779C10.7265 24.079 12.6639 24.6667 14.6458 24.6667C17.1279 24.6667 19.4096 23.7571 21.1671 22.2463L21.5833 22.6779V23.8958L29.2917 31.5888L31.5888 29.2917L23.8958 21.5833ZM14.6458 21.5833C10.8071 21.5833 7.70834 18.4846 7.70834 14.6458C7.70834 10.8071 10.8071 7.70834 14.6458 7.70834C18.4846 7.70834 21.5833 10.8071 21.5833 14.6458C21.5833 18.4846 18.4846 21.5833 14.6458 21.5833Z" fill="#041724"/>
</svg>
